<svg width="32" height="32" viewBox="0 0 32 32" fill="none" xmlns="http://www.w3.org/2000/svg">
<path d="M0 10C0 4.47715 4.47715 0 10 0H22C27.5228 0 32 4.47715 32 10V22C32 27.5228 27.5228 32 22 32H10C4.47715 32 0 27.5228 0 22V10Z" fill="#0A60E1"/>
<path d="M12.1193 22V20.7273L16.0568 16.6477C16.4773 16.2045 16.8239 15.8163 17.0966 15.483C17.3731 15.1458 17.5795 14.8258 17.7159 14.5227C17.8523 14.2197 17.9205 13.8977 17.9205 13.5568C17.9205 13.1705 17.8295 12.8371 17.6477 12.5568C17.4659 12.2727 17.2178 12.0549 16.9034 11.9034C16.589 11.7481 16.2348 11.6705 15.8409 11.6705C15.4242 11.6705 15.0606 11.7557 14.75 11.9261C14.4394 12.0966 14.2008 12.3371 14.0341 12.6477C13.8674 12.9583 13.7841 13.322 13.7841 13.7386H12.108C12.108 13.0303 12.2708 12.411 12.5966 11.8807C12.9223 11.3504 13.3693 10.9394 13.9375 10.6477C14.5057 10.3523 15.1515 10.2045 15.875 10.2045C16.6061 10.2045 17.25 10.3504 17.8068 10.642C18.3674 10.9299 18.8049 11.3239 19.1193 11.8239C19.4337 12.3201 19.5909 12.8807 19.5909 13.5057C19.5909 13.9375 19.5095 14.3598 19.3466 14.7727C19.1875 15.1856 18.9091 15.6458 18.5114 16.1534C18.1136 16.6572 17.5606 17.2689 16.8523 17.9886L14.5398 20.4091V20.4943H19.7784V22H12.1193Z" fill="#FDFDFD"/>
</svg>
