<svg width="99" height="36" viewBox="0 0 99 36" fill="none" xmlns="http://www.w3.org/2000/svg">
<rect width="99" height="36" rx="18" fill="#E1F5FE"/>
<path d="M26.6719 15.4929C26.6188 15.0223 26.4001 14.6577 26.0156 14.3991C25.6312 14.1373 25.1473 14.0064 24.5639 14.0064C24.1463 14.0064 23.785 14.0727 23.4801 14.2053C23.1752 14.3345 22.9382 14.5135 22.7692 14.7422C22.6035 14.9676 22.5206 15.2244 22.5206 15.5128C22.5206 15.7547 22.5769 15.9635 22.6896 16.1392C22.8056 16.3149 22.9564 16.4624 23.142 16.5817C23.331 16.6977 23.5331 16.7955 23.7486 16.875C23.964 16.9512 24.1712 17.0142 24.37 17.0639L25.3643 17.3224C25.6892 17.402 26.0223 17.5097 26.3636 17.6456C26.705 17.7815 27.0215 17.9605 27.3132 18.1825C27.6049 18.4046 27.8402 18.6797 28.0192 19.0078C28.2015 19.3359 28.2926 19.7287 28.2926 20.1861C28.2926 20.7628 28.1435 21.2749 27.8452 21.7223C27.5502 22.1697 27.121 22.5227 26.5575 22.7812C25.9974 23.0398 25.3196 23.169 24.5241 23.169C23.7618 23.169 23.1023 23.0481 22.5455 22.8061C21.9886 22.5642 21.5528 22.2211 21.2379 21.777C20.9231 21.3295 20.7491 20.7992 20.7159 20.1861H22.2571C22.2869 20.554 22.4063 20.8606 22.6151 21.1058C22.8272 21.3478 23.0973 21.5284 23.4254 21.6477C23.7569 21.7637 24.1198 21.8217 24.5142 21.8217C24.9484 21.8217 25.3345 21.7538 25.6726 21.6179C26.014 21.4787 26.2824 21.2865 26.478 21.0412C26.6735 20.7926 26.7713 20.5026 26.7713 20.1712C26.7713 19.8696 26.6851 19.6226 26.5128 19.4304C26.3438 19.2382 26.1134 19.0791 25.8217 18.9531C25.5334 18.8272 25.2069 18.7161 24.8423 18.62L23.6392 18.2919C22.8239 18.0698 22.1776 17.7434 21.7003 17.3125C21.2263 16.8816 20.9893 16.3116 20.9893 15.6023C20.9893 15.0156 21.1484 14.5036 21.4666 14.0661C21.7848 13.6286 22.2157 13.2888 22.7592 13.0469C23.3028 12.8016 23.916 12.679 24.5987 12.679C25.2881 12.679 25.8963 12.8 26.4233 13.0419C26.9536 13.2839 27.3712 13.617 27.6761 14.0412C27.9811 14.4621 28.1402 14.946 28.1534 15.4929H26.6719ZM33.2257 23.1541C32.5098 23.1541 31.885 22.9901 31.3514 22.6619C30.8178 22.3338 30.4035 21.8748 30.1085 21.2848C29.8135 20.6948 29.666 20.0054 29.666 19.2166C29.666 18.4245 29.8135 17.7318 30.1085 17.1385C30.4035 16.5452 30.8178 16.0845 31.3514 15.7564C31.885 15.4283 32.5098 15.2642 33.2257 15.2642C33.9416 15.2642 34.5663 15.4283 35.1 15.7564C35.6336 16.0845 36.0479 16.5452 36.3429 17.1385C36.6378 17.7318 36.7853 18.4245 36.7853 19.2166C36.7853 20.0054 36.6378 20.6948 36.3429 21.2848C36.0479 21.8748 35.6336 22.3338 35.1 22.6619C34.5663 22.9901 33.9416 23.1541 33.2257 23.1541ZM33.2306 21.9062C33.6947 21.9062 34.0791 21.7836 34.3841 21.5384C34.689 21.2931 34.9144 20.9666 35.0602 20.5589C35.2093 20.1513 35.2839 19.7022 35.2839 19.2116C35.2839 18.7244 35.2093 18.277 35.0602 17.8693C34.9144 17.4583 34.689 17.1286 34.3841 16.88C34.0791 16.6314 33.6947 16.5071 33.2306 16.5071C32.7633 16.5071 32.3755 16.6314 32.0673 16.88C31.7624 17.1286 31.5353 17.4583 31.3862 17.8693C31.2404 18.277 31.1674 18.7244 31.1674 19.2116C31.1674 19.7022 31.2404 20.1513 31.3862 20.5589C31.5353 20.9666 31.7624 21.2931 32.0673 21.5384C32.3755 21.7836 32.7633 21.9062 33.2306 21.9062ZM42.0788 15.3636V16.5568H37.7635V15.3636H42.0788ZM38.9467 23V14.4787C38.9467 14.0014 39.0511 13.6053 39.2599 13.2905C39.4688 12.9723 39.7455 12.7353 40.0902 12.5795C40.4349 12.4205 40.8094 12.3409 41.2138 12.3409C41.5121 12.3409 41.7673 12.3658 41.9794 12.4155C42.1915 12.4619 42.349 12.505 42.4517 12.5447L42.1037 13.7479C42.0341 13.728 41.9446 13.7048 41.8352 13.6783C41.7259 13.6484 41.5933 13.6335 41.4375 13.6335C41.0762 13.6335 40.8177 13.723 40.6619 13.902C40.5095 14.081 40.4332 14.3395 40.4332 14.6776V23H38.9467ZM47.1772 15.3636V16.5568H43.006V15.3636H47.1772ZM44.1246 13.5341H45.6112V20.7578C45.6112 21.0462 45.6542 21.2633 45.7404 21.4091C45.8266 21.5516 45.9376 21.6494 46.0735 21.7024C46.2127 21.7521 46.3635 21.777 46.5259 21.777C46.6452 21.777 46.7496 21.7687 46.8391 21.7521C46.9286 21.7356 46.9982 21.7223 47.0479 21.7124L47.3164 22.9403C47.2302 22.9735 47.1076 23.0066 46.9485 23.0398C46.7894 23.0762 46.5906 23.0961 46.3519 23.0994C45.9608 23.1061 45.5962 23.0365 45.2582 22.8906C44.9201 22.7448 44.6467 22.5194 44.4379 22.2145C44.229 21.9096 44.1246 21.5268 44.1246 21.0661V13.5341ZM58.1992 15.4929C58.1462 15.0223 57.9274 14.6577 57.543 14.3991C57.1585 14.1373 56.6746 14.0064 56.0913 14.0064C55.6737 14.0064 55.3124 14.0727 55.0075 14.2053C54.7025 14.3345 54.4656 14.5135 54.2965 14.7422C54.1308 14.9676 54.0479 15.2244 54.0479 15.5128C54.0479 15.7547 54.1043 15.9635 54.217 16.1392C54.333 16.3149 54.4838 16.4624 54.6694 16.5817C54.8583 16.6977 55.0605 16.7955 55.2759 16.875C55.4914 16.9512 55.6985 17.0142 55.8974 17.0639L56.8917 17.3224C57.2165 17.402 57.5496 17.5097 57.891 17.6456C58.2324 17.7815 58.5489 17.9605 58.8406 18.1825C59.1322 18.4046 59.3675 18.6797 59.5465 19.0078C59.7288 19.3359 59.82 19.7287 59.82 20.1861C59.82 20.7628 59.6708 21.2749 59.3725 21.7223C59.0775 22.1697 58.6483 22.5227 58.0849 22.7812C57.5247 23.0398 56.8469 23.169 56.0515 23.169C55.2892 23.169 54.6296 23.0481 54.0728 22.8061C53.516 22.5642 53.0801 22.2211 52.7653 21.777C52.4504 21.3295 52.2764 20.7992 52.2433 20.1861H53.7844C53.8143 20.554 53.9336 20.8606 54.1424 21.1058C54.3545 21.3478 54.6246 21.5284 54.9528 21.6477C55.2842 21.7637 55.6471 21.8217 56.0415 21.8217C56.4757 21.8217 56.8619 21.7538 57.1999 21.6179C57.5413 21.4787 57.8098 21.2865 58.0053 21.0412C58.2009 20.7926 58.2987 20.5026 58.2987 20.1712C58.2987 19.8696 58.2125 19.6226 58.0401 19.4304C57.8711 19.2382 57.6407 19.0791 57.3491 18.9531C57.0607 18.8272 56.7343 18.7161 56.3697 18.62L55.1665 18.2919C54.3512 18.0698 53.7049 17.7434 53.2276 17.3125C52.7537 16.8816 52.5167 16.3116 52.5167 15.6023C52.5167 15.0156 52.6758 14.5036 52.994 14.0661C53.3121 13.6286 53.743 13.2888 54.2866 13.0469C54.8301 12.8016 55.4433 12.679 56.1261 12.679C56.8155 12.679 57.4237 12.8 57.9506 13.0419C58.4809 13.2839 58.8986 13.617 59.2035 14.0412C59.5084 14.4621 59.6675 14.946 59.6808 15.4929H58.1992ZM62.9036 20.4098L62.8936 18.5952H63.1522L66.1948 15.3636H67.9746L64.5044 19.0426H64.2708L62.9036 20.4098ZM61.5364 23V12.8182H63.0229V23H61.5364ZM66.3588 23L63.6245 19.3707L64.6486 18.3317L68.1834 23H66.3588ZM69.3294 23V15.3636H70.8159V23H69.3294ZM70.0801 14.1854C69.8216 14.1854 69.5995 14.0992 69.4139 13.9268C69.2316 13.7512 69.1404 13.5424 69.1404 13.3004C69.1404 13.0552 69.2316 12.8464 69.4139 12.674C69.5995 12.4983 69.8216 12.4105 70.0801 12.4105C70.3386 12.4105 70.559 12.4983 70.7413 12.674C70.9269 12.8464 71.0197 13.0552 71.0197 13.3004C71.0197 13.5424 70.9269 13.7512 70.7413 13.9268C70.559 14.0992 70.3386 14.1854 70.0801 14.1854ZM74.3022 12.8182V23H72.8157V12.8182H74.3022ZM77.7885 12.8182V23H76.302V12.8182H77.7885Z" fill="#035177"/>
</svg>
