<svg width="25" height="28" viewBox="0 0 25 28" fill="none" xmlns="http://www.w3.org/2000/svg">
<path d="M12.0196 6.91016C8.7096 6.91016 6.0196 9.60016 6.0196 12.9102V15.8002C6.0196 16.4102 5.7596 17.3402 5.4496 17.8602L4.2996 19.7702C3.5896 20.9502 4.0796 22.2602 5.3796 22.7002C9.6896 24.1402 14.3396 24.1402 18.6496 22.7002C19.8596 22.3002 20.3896 20.8702 19.7296 19.7702L18.5796 17.8602C18.2796 17.3402 18.0196 16.4102 18.0196 15.8002V12.9102C18.0196 9.61016 15.3196 6.91016 12.0196 6.91016Z" stroke="#636363" stroke-width="1.5" stroke-miterlimit="10" stroke-linecap="round"/>
<path d="M13.8699 7.19945C13.5599 7.10945 13.2399 7.03945 12.9099 6.99945C11.9499 6.87945 11.0299 6.94945 10.1699 7.19945C10.4599 6.45945 11.1799 5.93945 12.0199 5.93945C12.8599 5.93945 13.5799 6.45945 13.8699 7.19945Z" stroke="#636363" stroke-width="1.5" stroke-miterlimit="10" stroke-linecap="round" stroke-linejoin="round"/>
<path d="M15.0195 23.0605C15.0195 24.7105 13.6695 26.0605 12.0195 26.0605C11.1995 26.0605 10.4395 25.7205 9.89953 25.1805C9.35953 24.6405 9.01953 23.8805 9.01953 23.0605" stroke="#636363" stroke-width="1.5" stroke-miterlimit="10"/>
<rect x="10" width="15" height="15" rx="7.5" fill="#FF5025"/>
<path d="M13.9056 10.1904V8.94994L17.0159 4.04989H18.0854V5.76691H17.4525L15.4917 8.86991V8.92811H19.9116V10.1904H13.9056ZM17.4816 11.5V9.81208L17.5107 9.26278V4.04989H18.9876V11.5H17.4816Z" fill="#FDFDFD"/>
</svg>
