<svg width="228" height="48" viewBox="0 0 228 48" fill="none" xmlns="http://www.w3.org/2000/svg">
<rect width="228" height="48" rx="8" fill="#0063EF"/>
<path d="M67.125 21.4205C67.0644 20.8826 66.8144 20.4659 66.375 20.1705C65.9356 19.8712 65.3826 19.7216 64.7159 19.7216C64.2386 19.7216 63.8258 19.7973 63.4773 19.9489C63.1288 20.0966 62.858 20.3011 62.6648 20.5625C62.4754 20.8201 62.3807 21.1136 62.3807 21.4432C62.3807 21.7197 62.4451 21.9583 62.5739 22.1591C62.7064 22.3598 62.8788 22.5284 63.0909 22.6648C63.3068 22.7973 63.5379 22.9091 63.7841 23C64.0303 23.0871 64.267 23.1591 64.4943 23.2159L65.6307 23.5114C66.0019 23.6023 66.3826 23.7254 66.7727 23.8807C67.1629 24.036 67.5246 24.2405 67.858 24.4943C68.1913 24.7481 68.4602 25.0625 68.6648 25.4375C68.8731 25.8125 68.9773 26.2614 68.9773 26.7841C68.9773 27.4432 68.8068 28.0284 68.4659 28.5398C68.1288 29.0511 67.6383 29.4545 66.9943 29.75C66.3542 30.0455 65.5795 30.1932 64.6705 30.1932C63.7992 30.1932 63.0455 30.0549 62.4091 29.7784C61.7727 29.5019 61.2746 29.1098 60.9148 28.6023C60.5549 28.0909 60.3561 27.4848 60.3182 26.7841H62.0795C62.1136 27.2045 62.25 27.5549 62.4886 27.8352C62.7311 28.1117 63.0398 28.3182 63.4148 28.4545C63.7936 28.5871 64.2083 28.6534 64.6591 28.6534C65.1553 28.6534 65.5966 28.5758 65.983 28.4205C66.3731 28.2614 66.6799 28.0417 66.9034 27.7614C67.1269 27.4773 67.2386 27.1458 67.2386 26.767C67.2386 26.4223 67.1402 26.1402 66.9432 25.9205C66.75 25.7008 66.4867 25.5189 66.1534 25.375C65.8239 25.2311 65.4508 25.1042 65.0341 24.9943L63.6591 24.6193C62.7273 24.3655 61.9886 23.9924 61.4432 23.5C60.9015 23.0076 60.6307 22.3561 60.6307 21.5455C60.6307 20.875 60.8125 20.2898 61.1761 19.7898C61.5398 19.2898 62.0322 18.9015 62.6534 18.625C63.2746 18.3447 63.9754 18.2045 64.7557 18.2045C65.5436 18.2045 66.2386 18.3428 66.8409 18.6193C67.447 18.8958 67.9242 19.2765 68.2727 19.7614C68.6212 20.2424 68.803 20.7955 68.8182 21.4205H67.125ZM75.0128 21.2727V22.6364H70.2457V21.2727H75.0128ZM71.5241 19.1818H73.223V27.4375C73.223 27.767 73.2723 28.0152 73.3707 28.1818C73.4692 28.3447 73.5961 28.4564 73.7514 28.517C73.9105 28.5739 74.0829 28.6023 74.2685 28.6023C74.4048 28.6023 74.5241 28.5928 74.6264 28.5739C74.7287 28.5549 74.8082 28.5398 74.8651 28.5284L75.1719 29.9318C75.0734 29.9697 74.9332 30.0076 74.7514 30.0455C74.5696 30.0871 74.3423 30.1098 74.0696 30.1136C73.6226 30.1212 73.206 30.0417 72.8196 29.875C72.4332 29.7083 72.1207 29.4508 71.8821 29.1023C71.6435 28.7538 71.5241 28.3163 71.5241 27.7898V19.1818ZM79.4318 30.1932C78.8788 30.1932 78.3788 30.0909 77.9318 29.8864C77.4848 29.678 77.1307 29.3769 76.8693 28.983C76.6117 28.589 76.483 28.1061 76.483 27.5341C76.483 27.0417 76.5777 26.6364 76.767 26.3182C76.9564 26 77.2121 25.7481 77.5341 25.5625C77.8561 25.3769 78.2159 25.2367 78.6136 25.142C79.0114 25.0473 79.4167 24.9754 79.8295 24.9261C80.3523 24.8655 80.7765 24.8163 81.1023 24.7784C81.428 24.7367 81.6648 24.6705 81.8125 24.5795C81.9602 24.4886 82.0341 24.3409 82.0341 24.1364V24.0966C82.0341 23.6004 81.8939 23.2159 81.6136 22.9432C81.3371 22.6705 80.9242 22.5341 80.375 22.5341C79.803 22.5341 79.3523 22.661 79.0227 22.9148C78.697 23.1648 78.4716 23.4432 78.3466 23.75L76.75 23.3864C76.9394 22.8561 77.2159 22.428 77.5795 22.1023C77.947 21.7727 78.3693 21.5341 78.8466 21.3864C79.3239 21.2348 79.8258 21.1591 80.3523 21.1591C80.7008 21.1591 81.0701 21.2008 81.4602 21.2841C81.8542 21.3636 82.2216 21.5114 82.5625 21.7273C82.9072 21.9432 83.1894 22.2519 83.4091 22.6534C83.6288 23.0511 83.7386 23.5682 83.7386 24.2045V30H82.0795V28.8068H82.0114C81.9015 29.0265 81.7367 29.2424 81.517 29.4545C81.2973 29.6667 81.0152 29.8428 80.6705 29.983C80.3258 30.1231 79.9129 30.1932 79.4318 30.1932ZM79.8011 28.8295C80.2708 28.8295 80.6723 28.7367 81.0057 28.5511C81.3428 28.3655 81.5985 28.1231 81.7727 27.8239C81.9508 27.5208 82.0398 27.197 82.0398 26.8523V25.7273C81.9792 25.7879 81.8617 25.8447 81.6875 25.8977C81.517 25.947 81.322 25.9905 81.1023 26.0284C80.8826 26.0625 80.6686 26.0947 80.4602 26.125C80.2519 26.1515 80.0777 26.1742 79.9375 26.1932C79.608 26.2348 79.3068 26.3049 79.0341 26.4034C78.7652 26.5019 78.5492 26.6439 78.3864 26.8295C78.2273 27.0114 78.1477 27.2538 78.1477 27.5568C78.1477 27.9773 78.303 28.2955 78.6136 28.5114C78.9242 28.7235 79.3201 28.8295 79.8011 28.8295ZM86.0014 30V21.2727H87.6435V22.6591H87.7344C87.8935 22.1894 88.1738 21.8201 88.5753 21.5511C88.9806 21.2784 89.4389 21.142 89.9503 21.142C90.0563 21.142 90.1813 21.1458 90.3253 21.1534C90.473 21.161 90.5885 21.1705 90.6719 21.1818V22.8068C90.6037 22.7879 90.4825 22.767 90.3082 22.7443C90.134 22.7178 89.9598 22.7045 89.7855 22.7045C89.384 22.7045 89.026 22.7898 88.7116 22.9602C88.401 23.1269 88.1548 23.3598 87.973 23.6591C87.7912 23.9545 87.7003 24.2917 87.7003 24.6705V30H86.0014ZM96.7315 21.2727V22.6364H91.9645V21.2727H96.7315ZM93.2429 19.1818H94.9418V27.4375C94.9418 27.767 94.991 28.0152 95.0895 28.1818C95.188 28.3447 95.3149 28.4564 95.4702 28.517C95.6293 28.5739 95.8016 28.6023 95.9872 28.6023C96.1236 28.6023 96.2429 28.5928 96.3452 28.5739C96.4474 28.5549 96.527 28.5398 96.5838 28.5284L96.8906 29.9318C96.7921 29.9697 96.652 30.0076 96.4702 30.0455C96.2884 30.0871 96.0611 30.1098 95.7884 30.1136C95.3414 30.1212 94.9247 30.0417 94.5384 29.875C94.152 29.7083 93.8395 29.4508 93.6009 29.1023C93.3622 28.7538 93.2429 28.3163 93.2429 27.7898V19.1818ZM102.982 30V18.3636H104.737V28.4886H110.01V30H102.982ZM115.638 30.1761C114.778 30.1761 114.037 29.9924 113.416 29.625C112.799 29.2538 112.321 28.733 111.984 28.0625C111.651 27.3883 111.484 26.5985 111.484 25.6932C111.484 24.7992 111.651 24.0114 111.984 23.3295C112.321 22.6477 112.791 22.1155 113.393 21.733C114 21.3504 114.708 21.1591 115.518 21.1591C116.011 21.1591 116.488 21.2405 116.95 21.4034C117.412 21.5663 117.827 21.822 118.195 22.1705C118.562 22.5189 118.852 22.9716 119.064 23.5284C119.276 24.0814 119.382 24.7538 119.382 25.5455V26.1477H112.445V24.875H117.717C117.717 24.428 117.626 24.0322 117.445 23.6875C117.263 23.339 117.007 23.0644 116.678 22.8636C116.352 22.6629 115.969 22.5625 115.53 22.5625C115.053 22.5625 114.636 22.6799 114.28 22.9148C113.928 23.1458 113.655 23.4489 113.462 23.8239C113.272 24.1951 113.178 24.5985 113.178 25.0341V26.0284C113.178 26.6117 113.28 27.108 113.484 27.517C113.693 27.9261 113.982 28.2386 114.354 28.4545C114.725 28.6667 115.159 28.7727 115.655 28.7727C115.977 28.7727 116.27 28.7273 116.536 28.6364C116.801 28.5417 117.03 28.4015 117.223 28.2159C117.416 28.0303 117.564 27.8011 117.666 27.5284L119.274 27.8182C119.145 28.2917 118.914 28.7064 118.581 29.0625C118.251 29.4148 117.837 29.6894 117.337 29.8864C116.84 30.0795 116.274 30.1761 115.638 30.1761ZM123.807 30.1932C123.254 30.1932 122.754 30.0909 122.307 29.8864C121.86 29.678 121.506 29.3769 121.244 28.983C120.987 28.589 120.858 28.1061 120.858 27.5341C120.858 27.0417 120.953 26.6364 121.142 26.3182C121.331 26 121.587 25.7481 121.909 25.5625C122.231 25.3769 122.591 25.2367 122.989 25.142C123.386 25.0473 123.792 24.9754 124.205 24.9261C124.727 24.8655 125.152 24.8163 125.477 24.7784C125.803 24.7367 126.04 24.6705 126.188 24.5795C126.335 24.4886 126.409 24.3409 126.409 24.1364V24.0966C126.409 23.6004 126.269 23.2159 125.989 22.9432C125.712 22.6705 125.299 22.5341 124.75 22.5341C124.178 22.5341 123.727 22.661 123.398 22.9148C123.072 23.1648 122.847 23.4432 122.722 23.75L121.125 23.3864C121.314 22.8561 121.591 22.428 121.955 22.1023C122.322 21.7727 122.744 21.5341 123.222 21.3864C123.699 21.2348 124.201 21.1591 124.727 21.1591C125.076 21.1591 125.445 21.2008 125.835 21.2841C126.229 21.3636 126.597 21.5114 126.938 21.7273C127.282 21.9432 127.564 22.2519 127.784 22.6534C128.004 23.0511 128.114 23.5682 128.114 24.2045V30H126.455V28.8068H126.386C126.277 29.0265 126.112 29.2424 125.892 29.4545C125.672 29.6667 125.39 29.8428 125.045 29.983C124.701 30.1231 124.288 30.1932 123.807 30.1932ZM124.176 28.8295C124.646 28.8295 125.047 28.7367 125.381 28.5511C125.718 28.3655 125.973 28.1231 126.148 27.8239C126.326 27.5208 126.415 27.197 126.415 26.8523V25.7273C126.354 25.7879 126.237 25.8447 126.062 25.8977C125.892 25.947 125.697 25.9905 125.477 26.0284C125.258 26.0625 125.044 26.0947 124.835 26.125C124.627 26.1515 124.453 26.1742 124.312 26.1932C123.983 26.2348 123.682 26.3049 123.409 26.4034C123.14 26.5019 122.924 26.6439 122.761 26.8295C122.602 27.0114 122.523 27.2538 122.523 27.5568C122.523 27.9773 122.678 28.2955 122.989 28.5114C123.299 28.7235 123.695 28.8295 124.176 28.8295ZM130.376 30V21.2727H132.018V22.6591H132.109C132.268 22.1894 132.549 21.8201 132.95 21.5511C133.356 21.2784 133.814 21.142 134.325 21.142C134.431 21.142 134.556 21.1458 134.7 21.1534C134.848 21.161 134.964 21.1705 135.047 21.1818V22.8068C134.979 22.7879 134.857 22.767 134.683 22.7443C134.509 22.7178 134.335 22.7045 134.161 22.7045C133.759 22.7045 133.401 22.7898 133.087 22.9602C132.776 23.1269 132.53 23.3598 132.348 23.6591C132.166 23.9545 132.075 24.2917 132.075 24.6705V30H130.376ZM138.216 24.8182V30H136.517V21.2727H138.148V22.6932H138.256C138.456 22.2311 138.771 21.8598 139.199 21.5795C139.631 21.2992 140.174 21.1591 140.83 21.1591C141.424 21.1591 141.945 21.2841 142.392 21.5341C142.839 21.7803 143.186 22.1477 143.432 22.6364C143.678 23.125 143.801 23.7292 143.801 24.4489V30H142.102V24.6534C142.102 24.0208 141.938 23.5265 141.608 23.1705C141.278 22.8106 140.826 22.6307 140.25 22.6307C139.856 22.6307 139.506 22.7159 139.199 22.8864C138.896 23.0568 138.655 23.3068 138.477 23.6364C138.303 23.9621 138.216 24.3561 138.216 24.8182ZM146.08 30V21.2727H147.778V30H146.08ZM146.938 19.9261C146.642 19.9261 146.388 19.8277 146.176 19.6307C145.968 19.4299 145.864 19.1913 145.864 18.9148C145.864 18.6345 145.968 18.3958 146.176 18.1989C146.388 17.9981 146.642 17.8977 146.938 17.8977C147.233 17.8977 147.485 17.9981 147.693 18.1989C147.905 18.3958 148.011 18.6345 148.011 18.9148C148.011 19.1913 147.905 19.4299 147.693 19.6307C147.485 19.8277 147.233 19.9261 146.938 19.9261ZM151.763 24.8182V30H150.064V21.2727H151.695V22.6932H151.803C152.003 22.2311 152.318 21.8598 152.746 21.5795C153.178 21.2992 153.721 21.1591 154.376 21.1591C154.971 21.1591 155.492 21.2841 155.939 21.5341C156.386 21.7803 156.732 22.1477 156.979 22.6364C157.225 23.125 157.348 23.7292 157.348 24.4489V30H155.649V24.6534C155.649 24.0208 155.484 23.5265 155.155 23.1705C154.825 22.8106 154.373 22.6307 153.797 22.6307C153.403 22.6307 153.053 22.7159 152.746 22.8864C152.443 23.0568 152.202 23.3068 152.024 23.6364C151.85 23.9621 151.763 24.3561 151.763 24.8182ZM163.286 33.4545C162.592 33.4545 161.996 33.3636 161.496 33.1818C161 33 160.594 32.7595 160.28 32.4602C159.965 32.161 159.731 31.8333 159.575 31.4773L161.036 30.875C161.138 31.0417 161.274 31.2178 161.445 31.4034C161.619 31.5928 161.854 31.7538 162.149 31.8864C162.448 32.0189 162.833 32.0852 163.303 32.0852C163.946 32.0852 164.479 31.928 164.899 31.6136C165.32 31.303 165.53 30.8068 165.53 30.125V28.4091H165.422C165.32 28.5947 165.172 28.8011 164.979 29.0284C164.789 29.2557 164.528 29.4527 164.195 29.6193C163.861 29.786 163.428 29.8693 162.893 29.8693C162.204 29.8693 161.583 29.7083 161.03 29.3864C160.481 29.0606 160.045 28.5814 159.723 27.9489C159.405 27.3125 159.246 26.5303 159.246 25.6023C159.246 24.6742 159.403 23.8788 159.717 23.2159C160.036 22.553 160.471 22.0455 161.024 21.6932C161.577 21.3371 162.204 21.1591 162.905 21.1591C163.446 21.1591 163.884 21.25 164.217 21.4318C164.551 21.6098 164.81 21.8182 164.996 22.0568C165.185 22.2955 165.331 22.5057 165.433 22.6875H165.558V21.2727H167.223V30.1932C167.223 30.9432 167.049 31.5587 166.7 32.0398C166.352 32.5208 165.88 32.8769 165.286 33.108C164.695 33.339 164.028 33.4545 163.286 33.4545ZM163.268 28.4602C163.757 28.4602 164.17 28.3466 164.507 28.1193C164.848 27.8883 165.106 27.5587 165.28 27.1307C165.458 26.6989 165.547 26.1818 165.547 25.5795C165.547 24.9924 165.46 24.4754 165.286 24.0284C165.111 23.5814 164.856 23.233 164.518 22.983C164.181 22.7292 163.765 22.6023 163.268 22.6023C162.757 22.6023 162.331 22.7348 161.99 23C161.649 23.2614 161.392 23.6174 161.217 24.0682C161.047 24.5189 160.962 25.0227 160.962 25.5795C160.962 26.1515 161.049 26.6534 161.223 27.0852C161.397 27.517 161.655 27.8542 161.996 28.0966C162.34 28.339 162.765 28.4602 163.268 28.4602Z" fill="#FDFDFD"/>
</svg>
