<svg width="35" height="12" viewBox="0 0 35 12" fill="none" xmlns="http://www.w3.org/2000/svg">
<path d="M9.56228 0V11.6364H7.68728L2.20432 3.71023H2.10773V11.6364H-0.000221968V0H1.88614L7.36341 7.93182H7.46569V0H9.56228ZM15.6319 11.8068C14.7569 11.8068 14.0012 11.625 13.3648 11.2614C12.7323 10.8939 12.2455 10.375 11.9046 9.70455C11.5637 9.0303 11.3932 8.23674 11.3932 7.32386C11.3932 6.42614 11.5637 5.63826 11.9046 4.96023C12.2493 4.27841 12.7304 3.74811 13.3478 3.36932C13.9652 2.98674 14.6906 2.79545 15.5239 2.79545C16.0618 2.79545 16.5694 2.88258 17.0467 3.05682C17.5277 3.22727 17.952 3.49242 18.3194 3.85227C18.6906 4.21212 18.9823 4.67045 19.1944 5.22727C19.4065 5.7803 19.5126 6.43939 19.5126 7.20455V7.83523H12.3592V6.44886H17.541C17.5372 6.05492 17.452 5.70455 17.2853 5.39773C17.1186 5.08712 16.8857 4.8428 16.5864 4.66477C16.291 4.48674 15.9463 4.39773 15.5523 4.39773C15.1319 4.39773 14.7626 4.5 14.4444 4.70455C14.1262 4.9053 13.8781 5.17045 13.7001 5.5C13.5258 5.82576 13.4368 6.18371 13.433 6.57386V7.78409C13.433 8.29167 13.5258 8.72727 13.7114 9.09091C13.897 9.45076 14.1565 9.72727 14.4898 9.92045C14.8232 10.1098 15.2133 10.2045 15.6603 10.2045C15.9595 10.2045 16.2304 10.1629 16.4728 10.0795C16.7152 9.99242 16.9254 9.86553 17.1035 9.69886C17.2815 9.5322 17.416 9.32576 17.5069 9.07955L19.4273 9.29545C19.3061 9.80303 19.0751 10.2462 18.7342 10.625C18.397 11 17.9652 11.2917 17.4387 11.5C16.9122 11.7045 16.3099 11.8068 15.6319 11.8068ZM22.7469 2.90909L24.5083 6.13068L26.2981 2.90909H28.4742L25.8435 7.27273L28.5197 11.6364H26.3549L24.5083 8.49432L22.6788 11.6364H20.4969L23.156 7.27273L20.5651 2.90909H22.7469ZM34.4231 2.90909V4.5H29.406V2.90909H34.4231ZM30.6447 0.818182H32.7015V9.01136C32.7015 9.28788 32.7431 9.5 32.8265 9.64773C32.9136 9.79167 33.0272 9.89015 33.1674 9.94318C33.3075 9.99621 33.4628 10.0227 33.6333 10.0227C33.7621 10.0227 33.8795 10.0133 33.9856 9.99432C34.0954 9.97538 34.1788 9.95833 34.2356 9.94318L34.5822 11.5511C34.4723 11.589 34.3151 11.6307 34.1106 11.6761C33.9098 11.7216 33.6636 11.7481 33.3719 11.7557C32.8568 11.7708 32.3928 11.6932 31.9799 11.5227C31.567 11.3485 31.2394 11.0795 30.9969 10.7159C30.7583 10.3523 30.6409 9.89773 30.6447 9.35227V0.818182Z" fill="#0A60E1"/>
</svg>
