<svg width="32" height="32" viewBox="0 0 32 32" fill="none" xmlns="http://www.w3.org/2000/svg">
<circle cx="16" cy="16" r="15.5" fill="#0A60E1" stroke="#0A60E1"/>
<path d="M12.5241 21.169C11.7386 21.1657 11.0675 20.9586 10.5107 20.5476C9.95384 20.1366 9.52794 19.5384 9.23295 18.7528C8.93797 17.9673 8.79048 17.0211 8.79048 15.9141C8.79048 14.8104 8.93797 13.8674 9.23295 13.0852C9.53125 12.303 9.95881 11.7064 10.5156 11.2955C11.0758 10.8845 11.7453 10.679 12.5241 10.679C13.303 10.679 13.9709 10.8861 14.5277 11.3004C15.0845 11.7114 15.5104 12.308 15.8054 13.0902C16.1037 13.8691 16.2528 14.8104 16.2528 15.9141C16.2528 17.0244 16.1054 17.9723 15.8104 18.7578C15.5154 19.54 15.0895 20.1383 14.5327 20.5526C13.9759 20.9635 13.3063 21.169 12.5241 21.169ZM12.5241 19.8416C13.2135 19.8416 13.7521 19.5052 14.1399 18.8324C14.531 18.1596 14.7266 17.1868 14.7266 15.9141C14.7266 15.0689 14.6371 14.3546 14.4581 13.7713C14.2824 13.1847 14.0289 12.7405 13.6974 12.4389C13.3693 12.134 12.9782 11.9815 12.5241 11.9815C11.8381 11.9815 11.2995 12.3196 10.9084 12.9957C10.5173 13.6719 10.3201 14.6446 10.3168 15.9141C10.3168 16.7625 10.4046 17.4801 10.5803 18.0668C10.7592 18.6501 11.0128 19.0926 11.3409 19.3942C11.669 19.6925 12.0634 19.8416 12.5241 19.8416ZM21.8794 10.8182V21H20.3382V12.3594H20.2786L17.8425 13.9503V12.4787L20.383 10.8182H21.8794Z" fill="#FDFDFD"/>
</svg>
